<svg id="Layer_1" data-name="Layer 1" xmlns="http://www.w3.org/2000/svg" width="89.64" height="30" viewBox="0 0 89.64 30"><title>fast-and-furious</title><path d="M66.08,27.31h-1v2.62h1a1.32,1.32,0,0,0,1.39-1.25v-.06a1.25,1.25,0,0,0-1.19-1.31h-.14m-.22,2.2h-.35V27.73H66c.57,0,1,.26,1,.89s-.47.89-1.06.89M62.4,28.8h1.21v-.42H62.32v-.65h1.27v-.42H61.86v2.62h1.8v-.42H62.32Zm19.33.46h0l-1.27-2h-.61v2.62h.46v-2h0l1.29,2h.6V27.31h-.47Zm-7.87.67h.46V27.31h-.46Zm-5,0h.47V27.31h-.47Zm1.7-2.2h.8v2.2h.47v-2.2h.8v-.42H70.47ZM77,27.25A1.38,1.38,0,0,0,76.77,30,.88.88,0,0,0,77,30a1.33,1.33,0,0,0,1.39-1.27v-.11a1.3,1.3,0,0,0-1.22-1.37H77m0,2.33a.9.9,0,0,1-.9-.92v-.08a.9.9,0,1,1,1.8,0,.92.92,0,0,1-.82,1H77M86,19a6.22,6.22,0,0,0-1.49-.14H83.19a2.43,2.43,0,0,1-.6-.05c-.3-.07-.31-.22-.23-.36.17-.3.63-.48,1.85-.49s3.17.29,4,.36l1.43-2.5A30.05,30.05,0,0,0,85,15.43c-2.88,0-6.09.52-7.8,3.53-.89,1.55-.33,2.24.73,2.51a5.38,5.38,0,0,0,1.44.14h1.3a4.33,4.33,0,0,1,.72,0c.2.05.27.16.14.4s-.91.39-2.39.4a16,16,0,0,1-3.38-.27h0L74.2,24.87a19.44,19.44,0,0,0,4.63.37c2.7,0,6-.39,7.66-3.39.88-1.54.86-2.52-.51-2.87M38.73,14.46h4.85l1-1.18h3.15l-.37,1.19h4.92l2.26-9.28L47,5.15ZM49.57,7.29l-.92,3.39h-2l2.92-3.4Zm7.06,3.55a6.34,6.34,0,0,0,1.44.14h1.3a2.89,2.89,0,0,1,.72,0c.21,0,.27.16.14.39s-.91.39-2.39.4a16,16,0,0,1-3.38-.27L52.9,14.28a18.93,18.93,0,0,0,4.63.36c2.7,0,5.95-.39,7.66-3.38.88-1.55.86-2.53-.51-2.87a6.23,6.23,0,0,0-1.49-.15h-1.3a2.07,2.07,0,0,1-.61-.06C61,8.12,61,8,61.06,7.84s.63-.49,1.84-.49a38.34,38.34,0,0,1,4,.36l1.43-2.5A28.76,28.76,0,0,0,63.7,4.8c-2.89,0-6.1.52-7.81,3.53-.88,1.54-.32,2.24.73,2.51M88,24.27c-.1.12-.13.17-.21.28a1.39,1.39,0,0,0,.12-.28l.32-1h-.31l-.85,1.48h.19l.57-1,.06-.09.07-.13h0v.11l-.06.15v.07l-.28.93h.22l.79-.93.09-.11.08-.11.07-.09h0a.15.15,0,0,1-.07.11v.09l-.58,1h.2l.85-1.47H89ZM69.92,8.69,66.7,14.33h4.76l3.21-5.64h2.8L79.55,5H69.21L67.12,8.7ZM87.6,23.52l.14-.24h-.95l-.14.24H87l-.72,1.23h.21l.71-1.24ZM81.11,10.41h0a3.22,3.22,0,0,0-3,1.76,1.18,1.18,0,0,0,.47,1.6,1.07,1.07,0,0,0,.46.14A3.91,3.91,0,0,0,80,14a6.16,6.16,0,0,0,2.78-.76l.35.56h4L85.9,12l2.58-1.54h-3.2l-.31.15-.4-.52c1-.12,2.28-.39,2.71-1.48.31-.8-.18-1.17-.87-1.35a8,8,0,0,0-1.83-.15c-1.28,0-3.43.23-4,1.8a1,1,0,0,0,.35,1.37.94.94,0,0,0,.23.1m2.72-1.77a.77.77,0,0,1,.74-.51h.25c.2.06.28.2.16.49a2,2,0,0,1-1,.82.8.8,0,0,1-.17-.82m-1.71,3.5a1.83,1.83,0,0,1-.84.37h-.12c-.21-.05-.31-.23-.21-.48a1.22,1.22,0,0,1,.71-.55Zm-51.61,2.4,2.05-3.6h8.58l2.51-4.41H35.1L36,5h8.57L47.4,0,31.4.07,23.14,14.53Zm33.15,5.69c1.5-2.64.61-3.89-1.3-4.38a10.33,10.33,0,0,0-2.54-.25c-3.43,0-7.08,1-9.16,4.69-1,1.76-2,4.13,1,4.9a10.93,10.93,0,0,0,2.55.25c6,0,8.23-3.08,9.45-5.21m-5.11.4a3.22,3.22,0,0,1-2.72,2,1.38,1.38,0,0,1-.45,0c-.72-.18-.62-.89,0-1.91a3.24,3.24,0,0,1,2.73-2,2.12,2.12,0,0,1,.44.05c.72.18.62.9,0,1.91M47.8,15.88l-5.3,9.29h4.76l5.3-9.3Zm30.53-.14H73.69l-3.31,5.8a1.74,1.74,0,0,1-1.58,1.05,1.93,1.93,0,0,1-.34,0c-.32-.09-.48-.34-.1-1l3.31-5.8H66.91l-3.46,6.06c-1.12,2-.31,2.87,1.16,3.24a10.09,10.09,0,0,0,2.57.24c2.84,0,6-.56,7.69-3.53ZM45.45,18.61c.8-1.39.52-2.29-.69-2.6a4.38,4.38,0,0,0-1.14-.12H34.71l-5.3,9.3h4.76l1.71-3h0l.53,3H42l-1-3.84a5.63,5.63,0,0,0,4.48-2.74m-5.12.66a1.87,1.87,0,0,1-1.91,1.05H37l1-1.86h1.54a2.09,2.09,0,0,1,.56.05c.38.1.45.33.21.76M12,17.31l.84-1.48h8.52l2.83-4.95L8.27,11,0,25.36H7.4l2-3.61h8.4l2.52-4.42Zm21.76-1.37H29.12l-3.31,5.8a1.75,1.75,0,0,1-1.92,1c-.32-.08-.48-.34-.1-1L27.07,16H22.31l-3.46,6.06c-1.12,2-.31,2.87,1.16,3.24a10.09,10.09,0,0,0,2.57.24c2.84,0,6-.56,7.69-3.53Z"/></svg>