<svg id="Layer_1" data-name="Layer 1" xmlns="http://www.w3.org/2000/svg" xmlns:xlink="http://www.w3.org/1999/xlink" width="121.76" height="24" viewBox="0 0 121.76 24"><defs><style>.cls-1{fill:url(#linear-gradient);}.cls-2{fill:url(#linear-gradient-2);}.cls-3{fill:url(#linear-gradient-3);}.cls-4{fill:url(#linear-gradient-4);}.cls-5{fill:url(#linear-gradient-5);}.cls-6{fill:url(#linear-gradient-6);}.cls-7{fill:url(#linear-gradient-7);}.cls-8{fill:url(#linear-gradient-8);}.cls-9{fill:url(#linear-gradient-9);}.cls-10{fill:url(#linear-gradient-10);}.cls-11{fill:#f08005;}</style><linearGradient id="linear-gradient" x1="88.58" y1="4.51" x2="88.58" y2="22.31" gradientTransform="matrix(1, 0, 0, -1, 0, 26)" gradientUnits="userSpaceOnUse"><stop offset="0" stop-color="#f08005"/><stop offset="0.6" stop-color="#f39602"/><stop offset="1" stop-color="#f5a000"/></linearGradient><linearGradient id="linear-gradient-2" x1="43.31" y1="11.67" x2="43.31" y2="15.17" xlink:href="#linear-gradient"/><linearGradient id="linear-gradient-3" x1="43.98" y1="4.52" x2="43.98" y2="8.06" xlink:href="#linear-gradient"/><linearGradient id="linear-gradient-4" x1="111.68" y1="11.67" x2="111.68" y2="15.17" xlink:href="#linear-gradient"/><linearGradient id="linear-gradient-5" x1="112.26" y1="4.54" x2="112.26" y2="8.08" xlink:href="#linear-gradient"/><linearGradient id="linear-gradient-6" x1="67.78" y1="4.52" x2="67.78" y2="22.28" xlink:href="#linear-gradient"/><linearGradient id="linear-gradient-7" x1="41.56" y1="4.47" x2="41.56" y2="22.29" xlink:href="#linear-gradient"/><linearGradient id="linear-gradient-8" x1="80.74" y1="4.53" x2="80.74" y2="22.32" xlink:href="#linear-gradient"/><linearGradient id="linear-gradient-9" x1="105.69" y1="4.49" x2="105.69" y2="22.31" xlink:href="#linear-gradient"/><linearGradient id="linear-gradient-10" x1="12" y1="2" x2="12" y2="26" xlink:href="#linear-gradient"/></defs><title>overdrive</title><rect class="cls-1" x="86.79" y="3.69" width="3.58" height="17.8"/><polygon class="cls-2" points="48.64 10.83 46.32 14.33 37.98 14.33 37.98 10.83 48.64 10.83"/><rect class="cls-3" x="37.98" y="17.94" width="11.99" height="3.54"/><polygon class="cls-4" points="117.62 10.83 115.3 14.33 105.73 14.33 105.73 10.83 117.62 10.83"/><rect class="cls-5" x="105.73" y="17.92" width="13.06" height="3.54"/><path class="cls-6" d="M67.66,3.72h-7V21.48h7c4.55,0,7.23-4.7,7.23-8.83C74.89,8.26,72,3.72,67.66,3.72Zm-.91,14.19H64.23V7.27h2.52c2.83,0,4.5,2.42,4.5,5.3S69.55,17.91,66.75,17.91Z"/><path class="cls-7" d="M54.18,14.35l5.09,7.13H55l-5-7.13V10.83h3.89C55.08,10.83,56,10.22,56,9c0-1.39-1.38-1.75-2.12-1.75h-17l-4.2,14.26H29.11L23.77,3.71h3.56L30.89,16,34.45,3.71H53.9A5.4,5.4,0,0,1,59.35,9,5.28,5.28,0,0,1,54.18,14.35Z"/><path class="cls-8" d="M76.11,3.68h3.83A5.4,5.4,0,0,1,85.39,9a5.27,5.27,0,0,1-5.17,5.3l5.1,7.17H81.09l-5-7.17V10.8h3.85c1.21,0,2.15-.61,2.15-1.81,0-1.39-1.37-1.75-2.12-1.75H76.11Z"/><polygon class="cls-9" points="119.94 3.69 119.94 7.25 104.62 7.25 100.36 21.51 96.79 21.51 91.45 3.69 95.01 3.69 98.57 15.97 102.2 3.69 105.76 3.69 119.94 3.69"/><path class="cls-10" d="M12,0A12,12,0,1,0,24,12,12,12,0,0,0,12,0Zm5.89,17.91A8.36,8.36,0,0,1,6.07,6.09,8.35,8.35,0,0,1,17.86,17.91Z"/><path class="cls-11" d="M120.63,4.27a.49.49,0,0,1,0-.24.52.52,0,0,1,.14-.19.5.5,0,0,1,.19-.13.62.62,0,0,1,.66.13.83.83,0,0,1,.13.18,1,1,0,0,1,0,.24.49.49,0,0,1,0,.24,1.27,1.27,0,0,1-.13.19.53.53,0,0,1-.2.13.72.72,0,0,1-.46,0,.5.5,0,0,1-.19-.13.52.52,0,0,1-.14-.19A.45.45,0,0,1,120.63,4.27Zm.09,0a.67.67,0,0,0,0,.2.51.51,0,0,0,.27.27.55.55,0,0,0,.4,0,.91.91,0,0,0,.16-.11.57.57,0,0,0,.11-.16.74.74,0,0,0,0-.21.67.67,0,0,0,0-.2.36.36,0,0,0-.11-.16.57.57,0,0,0-.16-.11.55.55,0,0,0-.4,0,.57.57,0,0,0-.16.11.36.36,0,0,0-.11.16A.74.74,0,0,0,120.72,4.27Zm.29-.35h.25a.32.32,0,0,1,.19.05.2.2,0,0,1,.06.15.18.18,0,0,1-.06.14h-.13l.2.31h-.1l-.19-.3h-.13v.3H121Zm.09.31h.25a.06.06,0,0,0,0-.06V4.11h-.21Z"/></svg>