<svg id="Layer_1" data-name="Layer 1" xmlns="http://www.w3.org/2000/svg" width="100.79" height="24.05" viewBox="0 0 100.79 24.05"><defs><style>.cls-1{fill:#222;}</style></defs><title>vecotor-dark</title><path class="cls-1" d="M16.78,4.36a11.52,11.52,0,0,1-1.35,5.42L9.59,20.64,3.75,9.78A11.4,11.4,0,0,1,2.4,4.36V0H0V4.36a13.9,13.9,0,0,0,1.64,6.56L8.53,23.74h2.12l6.89-12.82a13.9,13.9,0,0,0,1.64-6.56V0h-2.4Z" transform="translate(0)"/><path class="cls-1" d="M96.83,6.48a11.12,11.12,0,0,0-3.2.26c-4.26,1.11-4.26,5.36-4.26,6.75V23.74h2.4V13.49c0-2.69.71-4,2.47-4.43a9.12,9.12,0,0,1,2.55-.18h.77V6.49h-.73" transform="translate(0)"/><path class="cls-1" d="M64.19,21.15c-1.75-.46-2.46-1.74-2.46-4.43V9h5.34V6.59H61.72V3.43H59.33V16.72c0,1.39,0,5.64,4.26,6.75a9.24,9.24,0,0,0,2.46.27h1.46v-2.4h-.77a9.12,9.12,0,0,1-2.55-.19" transform="translate(0)"/><path class="cls-1" d="M83.55,17.24a5.94,5.94,0,0,1-.75,3A3.67,3.67,0,0,1,80,21.53a21.28,21.28,0,0,1-3.91,0,3.69,3.69,0,0,1-2.83-1.33,5.72,5.72,0,0,1-.75-3,26.39,26.39,0,0,1,0-4.17,5.72,5.72,0,0,1,.75-3,3.74,3.74,0,0,1,2.83-1.34,23.21,23.21,0,0,1,3.91,0A3.74,3.74,0,0,1,82.83,10a5.94,5.94,0,0,1,.75,3,29,29,0,0,1,0,4.17m2.18-6.06a5.58,5.58,0,0,0-5-4.75,31.11,31.11,0,0,0-5.46,0,5.59,5.59,0,0,0-5,4.75,28.21,28.21,0,0,0,0,8,5.59,5.59,0,0,0,5,4.75,31.11,31.11,0,0,0,5.46,0,5.58,5.58,0,0,0,5-4.75,27.86,27.86,0,0,0,0-8" transform="translate(0)"/><path class="cls-1" d="M53.28,19a3.29,3.29,0,0,1-.53,1.23,3.66,3.66,0,0,1-2.82,1.33,21.39,21.39,0,0,1-3.92,0,3.66,3.66,0,0,1-2.82-1.33,5.72,5.72,0,0,1-.75-3,26.39,26.39,0,0,1,0-4.17,5.72,5.72,0,0,1,.75-3A3.7,3.7,0,0,1,46,8.77a23.32,23.32,0,0,1,3.92,0,3.72,3.72,0,0,1,2.82,1.34,3.63,3.63,0,0,1,.53,1.21H55.7v-.14a5.59,5.59,0,0,0-5-4.75,31.11,31.11,0,0,0-5.46,0,5.59,5.59,0,0,0-5,4.75,28.21,28.21,0,0,0,0,8,5.59,5.59,0,0,0,5,4.75,31.11,31.11,0,0,0,5.46,0,5.59,5.59,0,0,0,5-4.75V19Z" transform="translate(0)"/><path class="cls-1" d="M24,10.11a3.72,3.72,0,0,1,2.82-1.34,22.5,22.5,0,0,1,3.85,0,3.74,3.74,0,0,1,2.83,1.34,6,6,0,0,1,.78,3v.52H23.22a4.51,4.51,0,0,1,0-.52,5.86,5.86,0,0,1,.79-3M36.71,16a28.8,28.8,0,0,0-.26-4.82,5.61,5.61,0,0,0-5-4.75,30.32,30.32,0,0,0-5.39,0,5.59,5.59,0,0,0-5,4.75,28.21,28.21,0,0,0,0,8,5.59,5.59,0,0,0,5,4.75,31.11,31.11,0,0,0,5.46,0,5.59,5.59,0,0,0,5-4.75V19H34.1a3.29,3.29,0,0,1-.53,1.23,3.66,3.66,0,0,1-2.82,1.33,21.39,21.39,0,0,1-3.92,0A3.68,3.68,0,0,1,24,20.2a5.72,5.72,0,0,1-.75-3c0-.41-.06-.82-.07-1.24Z" transform="translate(0)"/><path class="cls-1" d="M97.82,3.52v.16h.54V5.14h.16V3.68h.54V3.52Zm2.88,0-.63.92-.63-.92h-.1V5.14h.16V3.86l.54.8h.06l.54-.8V5.14h.15V3.52Z" transform="translate(0)"/></svg>